PathFileType	4	(X/Y/Z)	 s09c0202.trc
DataRate	CameraRate	NumFrames	NumMarkers	Units	OrigDataRate	OrigDataStartFrame	OrigNumFrames
200	200	4	50	mm	200	1501	2000
Frame#	Time	racr			lacr			c7			jug			rlel			rdr			llel			ldr			s2			lic			ric			lasi			rasi			rpsi			lpsi			rgt			lgt			rth1			rth2			rth3			rth4			rlfc			rmfc			rsh1			rsh2			rsh3			rsh4			rlmal			rmmal			rcal			rtoe			rmt5			lth1			lth2			lth4			lth3			llfc			lmfc			llmal			lmmal			lcal			lmt5			lsh1			lsh2			lsh3			lsh4			ltoe			SBIKE			LBIKE			RBIKE			
		X1	Y1	Z1	X2	Y2	Z2	X3	Y3	Z3	X4	Y4	Z4	X5	Y5	Z5	X6	Y6	Z6	X7	Y7	Z7	X8	Y8	Z8	X9	Y9	Z9	X10	Y10	Z10	X11	Y11	Z11	X12	Y12	Z12	X13	Y13	Z13	X14	Y14	Z14	X15	Y15	Z15	X16	Y16	Z16	X17	Y17	Z17	X18	Y18	Z18	X19	Y19	Z19	X20	Y20	Z20	X21	Y21	Z21	X22	Y22	Z22	X23	Y23	Z23	X24	Y24	Z24	X25	Y25	Z25	X26	Y26	Z26	X27	Y27	Z27	X28	Y28	Z28	X29	Y29	Z29	X30	Y30	Z30	X31	Y31	Z31	X32	Y32	Z32	X33	Y33	Z33	X34	Y34	Z34	X35	Y35	Z35	X36	Y36	Z36	X37	Y37	Z37	X38	Y38	Z38	X39	Y39	Z39	X40	Y40	Z40	X41	Y41	Z41	X42	Y42	Z42	X43	Y43	Z43	X44	Y44	Z44	X45	Y45	Z45	X46	Y46	Z46	X47	Y47	Z47	X48	Y48	Z48	X49	Y49	Z49	X50	Y50	Z50	
1501	7.5050	422.286043	1242.029830	-12.936087	544.121475	1216.859192	-351.137504	472.070306	1316.548965	-186.034203	458.547791	1182.108288	-190.221907	451.524167	999.155597	66.917819	664.894361	903.069884	-39.055371	463.922894	1033.421673	-553.954234	655.514033	907.385526	-466.479740	10.640701	1111.342141	-305.858698	168.682156	1099.534148	-426.147611	116.832709	1150.220937	-131.946157	202.613452	1053.534197	-388.155772	174.329514	1106.982816	-140.724617	21.025811	1153.896380	-248.655210	41.099436	1149.159098	-347.608383	131.682084	1041.764458	-83.288224	128.024901	955.916950	-456.889396	266.053934	1009.405195	-97.373491	352.200800	1007.230723	-112.462628	426.551345	958.679886	-109.799485	358.823374	1027.586579	-142.793783	506.847168	883.934236	-135.898137	487.456186	851.786503	-233.937101	433.330471	816.947864	-99.947041	395.598594	735.238079	-101.607728	324.150508	685.473331	-91.505565	416.975295	716.871685	-129.040678	257.402292	602.831082	-80.616172	257.533477	608.942705	-157.224658	168.208268	601.317559	-111.370712	403.770260	478.921003	-132.967603	326.383313	498.453841	-62.991258	190.851297	842.268442	-449.690110	248.643834	780.982026	-437.659054	280.258595	797.861984	-423.551240	268.279294	693.179973	-425.754384	295.471858	602.983351	-405.120234	302.672018	589.135337	-307.221056	193.824215	253.047180	-411.826198	215.916812	257.237610	-344.322067	125.084702	233.376167	-373.210004	277.248402	147.245069	-431.638938	263.771820	508.548355	-428.856990	264.661455	422.755172	-419.682457	221.460611	345.001788	-418.684531	289.699311	418.855526	-388.663054	370.890007	141.940565	-362.754892	-65.664923	851.464110	-241.596640	20.887368	84.520304	-442.272254	20.947648	84.189279	-44.005496	
1502	7.5100	420.240863	1242.337397	-11.902942	545.757848	1214.558586	-347.933074	472.162019	1315.034125	-185.443034	457.717259	1181.304606	-188.524797	450.947027	1000.094200	67.809694	663.703737	902.852540	-39.669278	466.308892	1034.371746	-553.245561	656.603597	907.499981	-465.479548	10.790964	1112.559868	-307.367318	169.509548	1098.976505	-426.747164	115.907835	1153.214794	-133.181494	203.227084	1053.592862	-388.367990	173.259450	1109.066822	-141.621199	21.709074	1154.051173	-250.536929	46.419338	1146.379924	-355.999995	131.042335	1045.853285	-83.628530	128.213896	956.028886	-456.961674	264.946318	1012.634571	-97.669523	351.147864	1010.024419	-112.439773	425.357244	961.539693	-108.900510	357.832091	1030.013096	-143.025685	506.398931	885.985757	-134.675579	486.785359	853.818114	-232.669497	433.521545	817.400450	-99.050512	397.516588	734.868200	-100.740013	327.157403	683.565596	-90.890992	419.483151	716.984118	-127.972502	262.084891	599.402671	-80.517093	261.982775	605.832908	-157.013823	173.564498	594.564046	-110.540629	413.397529	482.639874	-132.716115	335.465307	498.337765	-62.820603	191.332362	842.697248	-449.581687	249.419233	781.695521	-437.658934	281.031398	798.766445	-423.788356	269.501576	694.067341	-425.365383	296.799888	603.491214	-404.503661	304.895334	589.735298	-306.876072	186.504777	256.368452	-411.372263	208.796217	259.840928	-343.629740	117.385444	238.158566	-372.662643	267.368158	148.572367	-431.357965	263.652751	509.843331	-428.124052	262.108820	424.020243	-418.723496	216.826651	347.566630	-418.145381	286.825615	419.583290	-387.603022	360.782789	140.705543	-362.634847	-65.646944	851.393171	-241.611638	20.888182	84.561463	-442.274697	20.956464	84.189113	-43.989686	
1503	7.5150	418.605343	1242.747601	-11.179641	547.235874	1212.221430	-344.856923	472.446920	1314.260722	-183.797432	457.030450	1180.630631	-187.028121	450.353955	1000.999208	68.601076	662.572603	902.680371	-40.091432	468.504229	1034.857657	-552.664612	657.680572	907.582428	-464.799915	7.225026	1116.375014	-310.997250	170.204798	1098.810384	-427.360034	115.304980	1156.198683	-134.536180	203.702867	1053.645412	-388.568834	172.327259	1111.068949	-142.534489	22.181601	1155.819985	-252.314957	45.460190	1146.889311	-356.702829	130.485449	1049.869116	-84.026824	128.139831	956.294995	-456.854902	263.856200	1015.186977	-97.673953	350.162648	1011.880877	-112.072277	424.152715	963.214260	-107.625204	357.052902	1031.667642	-142.753217	505.795057	887.050168	-133.038855	485.918898	854.941819	-231.044343	433.517441	816.706471	-97.757311	399.329649	733.380704	-99.738334	330.084762	680.528497	-90.190091	421.724944	716.146688	-127.127691	266.439111	595.695373	-79.218088	266.456481	601.639889	-156.721890	178.292479	586.533727	-110.406192	422.975661	485.468265	-132.594652	344.878090	497.839806	-62.250877	191.963392	843.240411	-449.214835	250.747354	782.936517	-437.708712	282.207206	799.967532	-424.093433	271.187580	695.179413	-424.695888	298.784887	604.353377	-403.678472	307.659749	590.570544	-306.275268	179.455213	260.205109	-410.909794	201.820057	262.839268	-342.933513	109.927912	243.657451	-372.157589	257.664856	150.517978	-431.142705	264.041344	511.556359	-427.222358	259.973962	425.756266	-417.662872	212.588898	350.641163	-417.520572	284.253476	420.672635	-386.267653	350.792779	139.990356	-362.385374	-65.672739	851.439461	-241.561309	20.910894	84.584004	-442.264388	20.970330	84.192105	-43.984688	
1504	7.5200	417.150147	1243.032954	-10.672280	548.444561	1209.887104	-342.092932	472.831261	1313.242903	-182.674246	456.360648	1179.655213	-185.055496	449.680231	1001.972810	69.318877	661.621052	902.612209	-40.392343	470.434121	1035.365009	-552.115658	658.636363	907.616112	-464.364784	7.858015	1117.840412	-310.183870	170.778138	1099.007461	-427.989936	115.596025	1158.276229	-136.986623	204.070194	1053.999210	-389.142073	171.635297	1113.060550	-143.279500	22.686647	1157.736415	-253.795539	46.107648	1147.787231	-358.242284	129.832450	1053.672011	-84.324404	127.921427	956.490461	-455.958616	262.796548	1016.868308	-97.395212	349.257331	1012.886925	-111.262891	422.867067	963.717809	-106.163983	356.421416	1032.346875	-141.989182	504.912270	886.963833	-131.138592	485.010921	855.199633	-229.175281	433.382076	814.882734	-96.060559	401.123960	730.792558	-98.467090	332.995978	676.419952	-89.311082	423.764952	714.191831	-126.229003	271.339216	590.214144	-78.433800	271.027896	596.480345	-156.327436	183.163427	577.248213	-110.215167	432.219686	487.629516	-132.497795	353.788376	496.215531	-61.860869	192.807865	843.866680	-448.602041	252.073447	783.980934	-437.239787	283.649487	801.313999	-424.334681	273.248493	696.592134	-423.659191	301.348507	605.541032	-402.488866	310.832771	591.725209	-305.378852	172.670441	264.621595	-410.440813	194.985529	266.619037	-342.132681	102.780495	249.697630	-371.666013	247.996838	152.989425	-430.837285	264.970602	513.550967	-426.092541	258.247532	427.933844	-416.370072	208.666019	354.277765	-416.776960	281.980082	422.188079	-384.742381	340.789828	139.922163	-362.270466	-65.677760	851.516299	-241.453870	20.927813	84.613774	-442.242772	20.988872	84.200612	-43.963767	
